<svg xmlns="http://www.w3.org/2000/svg" width="64.968" height="64.967" viewBox="0 0 64.968 64.967">
  <g id="Crime-prevention" transform="translate(2020.454 1016.972)">
    <path id="パス_91" data-name="パス 91" d="M-1984.268-978.091a2.1,2.1,0,0,1-1.067,1.806v4.6h-2.136v-4.6a2.1,2.1,0,0,1-1.067-1.808,2.134,2.134,0,0,1,2.135-2.136A2.136,2.136,0,0,1-1984.268-978.091Zm11.668-5.363v15.116a3.207,3.207,0,0,1-3.2,3.2h-21.326a3.207,3.207,0,0,1-3.2-3.2v-15.116a3.206,3.206,0,0,1,3.2-3.2h.052V-990.9a10.687,10.687,0,0,1,10.675-10.675,10.687,10.687,0,0,1,10.675,10.675v4.253A3.2,3.2,0,0,1-1972.6-983.454Zm-22.343-3.2h17.08V-990.9a8.548,8.548,0,0,0-8.54-8.54,8.548,8.548,0,0,0-8.54,8.54Zm20.208,3.2a1.062,1.062,0,0,0-.993-1.053v.009h-21.349v-.024h-.052a1.07,1.07,0,0,0-1.068,1.068v15.116a1.069,1.069,0,0,0,1.068,1.067h21.326a1.07,1.07,0,0,0,1.068-1.067Z" transform="translate(-1.504 -1.132)"/>
    <circle id="楕円形_13" data-name="楕円形 13" cx="31.484" cy="31.484" r="31.484" transform="translate(-2019.454 -1015.972)" fill="none" stroke="#000" stroke-linecap="round" stroke-linejoin="round" stroke-width="2"/>
  </g>
</svg>
