<svg xmlns="http://www.w3.org/2000/svg" width="57.91" height="57.908" viewBox="0 0 57.91 57.908">
  <path id="グループ_178" data-name="グループ 178" d="M417.537,568.792a24.943,24.943,0,1,1-24.943,24.943A24.943,24.943,0,0,1,417.537,568.792Zm14.071,45.636,8.9,8.9a4.684,4.684,0,0,0,6.624-6.624l-8.9-8.9m-12.351-20.329a8.344,8.344,0,1,0-8.344,8.343A8.352,8.352,0,0,0,425.881,587.475Zm6.407,20.273c-.531-5.894-1.382-10.31-4.839-11.052l-5.735-1.681m-8.354,0-5.734,1.681c-3.457.742-4.309,5.158-4.84,11.052" transform="translate(-391.594 -567.792)" fill="none" stroke="#000" stroke-linecap="round" stroke-linejoin="round" stroke-width="2"/>
</svg>
