<svg xmlns="http://www.w3.org/2000/svg" width="68.371" height="58.029" viewBox="0 0 68.371 58.029">
  <g id="Reservation-system" transform="translate(2371.211 934.791)">
    <path id="パス_64" data-name="パス 64" d="M-2350.034-897.7v-5.1a2.007,2.007,0,0,1,2-2h6.455v-6.454a2.007,2.007,0,0,1,2-2h5.1a2.007,2.007,0,0,1,2,2v6.454h6.455a2.008,2.008,0,0,1,2,2v5.1a2.007,2.007,0,0,1-2,2h-6.455v6.455a2.008,2.008,0,0,1-2,2h-5.1a2.008,2.008,0,0,1-2-2V-895.7h-6.455a2.007,2.007,0,0,1-2-2Z" fill="none" stroke="#000" stroke-linecap="round" stroke-linejoin="round" stroke-width="2"/>
    <path id="パス_65" data-name="パス 65" d="M-2303.93-919.568l-1.03,6.975a2.3,2.3,0,0,1-2.247,1.962h-.034a2.227,2.227,0,0,1-.291-.025l-11.978-1.768a2.305,2.305,0,0,1-1.938-2.609c.977-6.615,3-7.609-5.674-9.256a70.5,70.5,0,0,0-9.848-1.036h-.111a70.521,70.521,0,0,0-9.849,1.036c-8.678,1.647-6.65,2.641-5.674,9.256a2.3,2.3,0,0,1-1.938,2.609l-11.978,1.768a2.2,2.2,0,0,1-.291.025h-.033a2.306,2.306,0,0,1-2.248-1.962l-1.029-6.975a8.921,8.921,0,0,1-.09-.944c.144-7.807,16.661-12.715,33.185-13.279,16.523.565,33.042,5.472,33.186,13.279a9.467,9.467,0,0,1-.09.944Z" fill="none" stroke="#000" stroke-linecap="round" stroke-linejoin="round" stroke-width="2"/>
    <path id="パス_66" data-name="パス 66" d="M-2315.71-906.64c2.109,6.466,4.754,14.548,4.754,16.533v5.1c0,3.985-2.837,7.249-6.3,7.249h-39.539c-3.464,0-6.3-3.262-6.3-7.249v-5.1c0-1.994,2.766-10.072,5-16.538" fill="none" stroke="#000" stroke-linecap="round" stroke-linejoin="round" stroke-width="2"/>
  </g>
</svg>
