<svg xmlns="http://www.w3.org/2000/svg" width="65.138" height="65.141" viewBox="0 0 65.138 65.141">
  <g id="グループ_739" data-name="グループ 739" transform="translate(-383.987 -628.989)">
    <g id="グループ_738" data-name="グループ 738">
      <path id="パス_266" data-name="パス 266" d="M436.727,666.184l7.11-2.929v-7.681l-7.11-2.929-1.749-4.223,2.957-7.1-5.431-5.431-7.1,2.957-4.223-1.749-2.929-7.11h-7.681l-2.929,7.11-4.223,1.749-7.1-2.957-5.431,5.431,2.957,7.1-1.749,4.223-7.11,2.929v7.681l7.11,2.929,1.749,4.223-2.957,7.1,5.431,5.431,7.1-2.957,4.223,1.749,2.929,7.11h7.681l2.929-7.11" fill="none" stroke="#000" stroke-linecap="round" stroke-linejoin="round" stroke-width="2"/>
      <path id="パス_267" data-name="パス 267" d="M403.182,655.393a11.956,11.956,0,0,1,7.843-7.416" fill="none" stroke="#000" stroke-linecap="round" stroke-linejoin="round" stroke-width="2"/>
    </g>
    <path id="パス_268" data-name="パス 268" d="M446.041,681.813l-16.408-15.259a14,14,0,0,0-13.573-18.985A1.8,1.8,0,0,0,414.5,648.7a2.947,2.947,0,0,0,.622,3.338l4.486,4.485a2.064,2.064,0,0,1,0,2.919l-5.165,5.165a2.064,2.064,0,0,1-2.919,0l-4.487-4.488a2.961,2.961,0,0,0-3.329-.636,1.771,1.771,0,0,0-1.136,1.539,14.013,14.013,0,0,0,18.995,13.627l15.245,16.394a6.532,6.532,0,0,0,9.4.171h0A6.532,6.532,0,0,0,446.041,681.813Z" fill="none" stroke="#000" stroke-linecap="round" stroke-linejoin="round" stroke-width="2"/>
  </g>
</svg>
