<svg xmlns="http://www.w3.org/2000/svg" width="43.287" height="64.495" viewBox="0 0 43.287 64.495">
  <path id="optical-line" d="M400.212,320.025V300.048h27.945v19.977m-13.972-56.236v36.259m-4.389,0s.463-21.172-4.791-30.456m.346,30.456s.866-12.875-6.236-18.36m-2.619-4.452a2.955,2.955,0,1,0,2.956,2.955A2.954,2.954,0,0,0,396.5,277.237Zm6.4-12.779a2.955,2.955,0,1,0,2.956,2.956A2.955,2.955,0,0,0,402.892,264.458Zm20.472,5.134c-5.254,9.284-4.792,30.456-4.792,30.456m10.682-18.36c-7.1,5.485-6.236,18.36-6.236,18.36m5.9-19.857a2.955,2.955,0,1,0,2.956-2.955A2.956,2.956,0,0,0,428.917,280.191Zm-6.4-12.778a2.955,2.955,0,1,0,2.956-2.956A2.955,2.955,0,0,0,422.521,267.414Zm-8.337-9.884a2.955,2.955,0,1,0,2.956,2.955A2.955,2.955,0,0,0,414.184,257.53Z" transform="translate(-392.541 -256.53)" fill="none" stroke="#000" stroke-linecap="round" stroke-linejoin="round" stroke-width="2"/>
</svg>
