<svg xmlns="http://www.w3.org/2000/svg" width="66.153" height="62.111" viewBox="0 0 66.153 62.111">
  <path id="パス_265" data-name="パス 265" d="M462.951,381.074V410.58m15.917-9.6a5.193,5.193,0,1,0,5.192,5.193m-26.3-.781a5.193,5.193,0,1,0,5.193,5.193m21.109-33.918v29.506m0-29.506-21.109,4.412m4,6.655,17.114-3.576m5,10.151H490.9a12.572,12.572,0,0,0,.163-25.144c0-.117.017-.23.017-.347a13.146,13.146,0,0,0-26.185-1.684A12.791,12.791,0,0,0,449.8,378.858a7.864,7.864,0,0,0-2.53-.45,7.948,7.948,0,0,0,0,15.9h15.68" transform="translate(-438.323 -354.661)" fill="none" stroke="#fff" stroke-linecap="round" stroke-linejoin="round" stroke-width="2"/>
</svg>
