<svg xmlns="http://www.w3.org/2000/svg" width="71.883" height="57.97" viewBox="0 0 71.883 57.97">
  <g id="グループ_740" data-name="グループ 740" transform="translate(-254.81 -630.414)">
    <path id="パス_269" data-name="パス 269" d="M275.558,637.988c-11.289,2.143-19.748,10.969-19.748,21.531,0,6.991,3.717,13.208,9.5,17.244a32.744,32.744,0,0,1-2.627,10.621,39.8,39.8,0,0,0,12.16-6.507,28.31,28.31,0,0,0,6.038.67,27.787,27.787,0,0,0,11.424-2.415" fill="none" stroke="#fff" stroke-linecap="round" stroke-linejoin="round" stroke-width="2"/>
    <path id="パス_270" data-name="パス 270" d="M325.693,653.442c0-12.166-11.223-22.028-25.067-22.028s-25.066,9.862-25.066,22.028,11.223,22.028,25.066,22.028a28.245,28.245,0,0,0,7.117-.914,39.77,39.77,0,0,0,12.459,6.751,33.6,33.6,0,0,1-2.691-11.617A20.863,20.863,0,0,0,325.693,653.442Z" fill="none" stroke="#fff" stroke-linecap="round" stroke-linejoin="round" stroke-width="2"/>
  </g>
</svg>
