<svg xmlns="http://www.w3.org/2000/svg" width="59.926" height="64.539" viewBox="0 0 59.926 64.539">
  <g id="グループ_742" data-name="グループ 742" transform="translate(1872.993 940.789)">
    <path id="パス_72" data-name="パス 72" d="M-1841.438-935.337a20.175,20.175,0,0,1,5.242,13.711,20.173,20.173,0,0,1-5.242,13.711,17.185,17.185,0,0,1-12.657,5.679,17.181,17.181,0,0,1-12.656-5.679,20.173,20.173,0,0,1-5.243-13.711,20.175,20.175,0,0,1,5.243-13.711" transform="translate(0 0.037)" fill="none" stroke="#fff" stroke-linecap="round" stroke-linejoin="round" stroke-width="2"/>
    <path id="パス_73" data-name="パス 73" d="M-1822.04-892.473c0,8.2-7.277,14.915-16.172,14.915h0c-8.895,0-16.239-7.01-16.239-15.213v-9.714" transform="translate(0.145 0.308)" fill="none" stroke="#fff" stroke-linecap="round" stroke-linejoin="round" stroke-width="2"/>
    <path id="パス_74" data-name="パス 74" d="M-1822.1-909.127a7.682,7.682,0,0,1,7.682,7.682,7.682,7.682,0,0,1-7.682,7.682,7.682,7.682,0,0,1-7.682-7.682,7.682,7.682,0,0,1,7.682-7.682Z" transform="translate(0.348 0.253)" fill="none" stroke="#fff" stroke-linecap="round" stroke-linejoin="round" stroke-width="2"/>
    <path id="パス_75" data-name="パス 75" d="M-1865.134-939.789a1.994,1.994,0,0,1,1.994,1.994,1.994,1.994,0,0,1-1.994,1.993,1.994,1.994,0,0,1-1.994-1.993,1.994,1.994,0,0,1,1.994-1.994Z" transform="translate(0.04 0)" fill="none" stroke="#fff" stroke-linecap="round" stroke-linejoin="round" stroke-width="2" fill-rule="evenodd"/>
    <path id="パス_76" data-name="パス 76" d="M-1843.316-939.789a1.994,1.994,0,0,1,1.994,1.994,1.993,1.993,0,0,1-1.994,1.993,1.993,1.993,0,0,1-1.993-1.993,1.993,1.993,0,0,1,1.993-1.994Z" transform="translate(0.22 0)" fill="none" stroke="#fff" stroke-linecap="round" stroke-linejoin="round" stroke-width="2" fill-rule="evenodd"/>
    <path id="パス_77" data-name="パス 77" d="M-1822.181-903.084a1.324,1.324,0,0,1,1.325,1.325,1.324,1.324,0,0,1-1.325,1.325,1.324,1.324,0,0,1-1.325-1.325,1.324,1.324,0,0,1,1.325-1.325Z" transform="translate(0.4 0.303)" fill="none" stroke="#fff" stroke-linecap="round" stroke-linejoin="round" stroke-width="2" fill-rule="evenodd"/>
  </g>
</svg>
