<svg xmlns="http://www.w3.org/2000/svg" width="40.11" height="61.286" viewBox="0 0 40.11 61.286">
  <path id="パス_262" data-name="パス 262" d="M53.721,329.908A13.593,13.593,0,1,1,40.128,343.5,13.593,13.593,0,0,1,53.721,329.908Zm-5.282,12.952H59M48.439,347.03H59m-5.282-4.171v8.521m-5.608-14.97,5.694,6.45,5.522-6.45M34.666,316.19v54.621a2.4,2.4,0,0,0,2.46,2.333H70.315a2.4,2.4,0,0,0,2.46-2.333V316.19a2.4,2.4,0,0,0-2.46-2.333H37.126A2.4,2.4,0,0,0,34.666,316.19Z" transform="translate(-33.666 -312.857)" fill="none" stroke="#fff" stroke-linecap="round" stroke-linejoin="round" stroke-width="2"/>
</svg>
