<svg xmlns="http://www.w3.org/2000/svg" width="46.683" height="60.967" viewBox="0 0 46.683 60.967">
  <g id="グループ_741" data-name="グループ 741" transform="translate(1054.309 -1945.678)">
    <path id="パス_81" data-name="パス 81" d="M-1051.46,1946.678h40.984a1.861,1.861,0,0,1,1.849,1.849V2003.8a1.867,1.867,0,0,1-1.849,1.849h-40.984a1.861,1.861,0,0,1-1.849-1.849v-55.269a1.854,1.854,0,0,1,1.849-1.849Z" fill="none" stroke="#fff" stroke-linecap="round" stroke-linejoin="round" stroke-width="2"/>
    <line id="線_113" data-name="線 113" y2="10.172" transform="translate(-1042.164 1966.983)" fill="none" stroke="#fff" stroke-linecap="round" stroke-linejoin="round" stroke-width="2"/>
    <line id="線_114" data-name="線 114" x2="10.172" transform="translate(-1047.249 1972.068)" fill="none" stroke="#fff" stroke-linecap="round" stroke-linejoin="round" stroke-width="2"/>
    <line id="線_115" data-name="線 115" x1="7.193" y2="7.193" transform="translate(-1023.81 1968.495)" fill="none" stroke="#fff" stroke-linecap="round" stroke-linejoin="round" stroke-width="2"/>
    <line id="線_116" data-name="線 116" x2="7.193" y2="7.193" transform="translate(-1045.76 1990.945)" fill="none" stroke="#fff" stroke-linecap="round" stroke-linejoin="round" stroke-width="2"/>
    <line id="線_117" data-name="線 117" y1="7.193" x2="7.193" transform="translate(-1045.76 1990.945)" fill="none" stroke="#fff" stroke-linecap="round" stroke-linejoin="round" stroke-width="2"/>
    <line id="線_118" data-name="線 118" x2="44.233" transform="translate(-1053.084 1983)" fill="none" stroke="#fff" stroke-linecap="round" stroke-linejoin="round" stroke-width="2"/>
    <line id="線_119" data-name="線 119" y2="44.233" transform="translate(-1030.968 1960.884)" fill="none" stroke="#fff" stroke-linecap="round" stroke-linejoin="round" stroke-width="2"/>
    <line id="線_120" data-name="線 120" x2="10.172" transform="translate(-1024.894 1991.805)" fill="none" stroke="#fff" stroke-linecap="round" stroke-linejoin="round" stroke-width="2"/>
    <line id="線_121" data-name="線 121" x2="10.172" transform="translate(-1024.894 1997.277)" fill="none" stroke="#fff" stroke-linecap="round" stroke-linejoin="round" stroke-width="2"/>
    <path id="パス_82" data-name="パス 82" d="M-1020.53,1970.257a1.221,1.221,0,0,0,0,1.727,1.222,1.222,0,0,0,1.728,0,1.221,1.221,0,0,0,0-1.727,1.222,1.222,0,0,0-1.728,0Z" transform="translate(-4.118 -2.949)" fill="none" stroke="#fff" stroke-linecap="round" stroke-linejoin="round" stroke-width="2" fill-rule="evenodd"/>
    <path id="パス_83" data-name="パス 83" d="M-1011.823,1978.964a1.223,1.223,0,0,0,0,1.728,1.223,1.223,0,0,0,1.728,0,1.223,1.223,0,0,0,0-1.728,1.223,1.223,0,0,0-1.728,0Z" transform="translate(-5.224 -4.055)" fill="none" stroke="#fff" stroke-linecap="round" stroke-linejoin="round" stroke-width="2" fill-rule="evenodd"/>
    <line id="線_122" data-name="線 122" x2="44.233" transform="translate(-1053.084 1960.356)" fill="none" stroke="#fff" stroke-linecap="round" stroke-linejoin="round" stroke-width="2"/>
  </g>
</svg>
